<svg xmlns="http://www.w3.org/2000/svg" viewBox="0 0 48 48" width="48" height="48">
  <path fill="#424242" d="M36.7 25.7c-.1-4.7 3.8-6.9 4-7-2.2-3.2-5.6-3.6-6.8-3.7-2.9-.3-5.6 1.7-7.1 1.7-1.5 0-3.7-1.7-6.1-1.7-3.1 0-6 1.8-7.6 4.6-3.3 5.7-.8 14.1 2.4 18.7 1.6 2.2 3.5 4.7 6 4.6 2.4-.1 3.3-1.5 6.1-1.5s3.6 1.5 6.1 1.5c2.6 0 4.1-2.2 5.7-4.5 1.8-2.6 2.5-5.2 2.6-5.3-.1-.1-5-1.9-5-7.4z"/>
  <path fill="#424242" d="M31.7 10.7c1.3-1.6 2.2-3.8 1.9-6-1.9.1-4.2 1.3-5.6 2.8-1.2 1.4-2.3 3.7-2 5.9 2.1.2 4.3-1.3 5.7-2.7z"/>
</svg>