<svg xmlns="http://www.w3.org/2000/svg" viewBox="0 0 48 48" width="48" height="48">
  <path fill="#1877F2" d="M48 24C48 10.7 37.3 0 24 0S0 10.7 0 24c0 11.8 8.6 21.6 20 23.4V30h-6v-6h6v-4.5c0-6 3.6-9.3 9-9.3 2.6 0 5.3.5 5.3.5v5.8h-3c-3 0-3.9 1.8-3.9 3.6V24h6.6l-1.1 6H34v17.4C39.5 45.1 48 35.5 48 24z"/>
  <path fill="#FFF" d="M33.9 30 35 24h-6v-3.9c0-1.8.9-3.6 3.9-3.6h3V11c0-.5-.5-1-1-1-2.6 0-5.3-.5-5.3-.5-1.8 0-3.3 1.5-3.3 3.3V18h-6v6h6v17.4c1.2.2 2.4.3 3.6.3 1.2 0 2.4-.1 3.6-.3V30h-4.1z"/>
</svg>