<svg xmlns="http://www.w3.org/2000/svg" viewBox="0 0 48 48" width="48" height="48">
  <path fill="#FFC107" d="M43.6 20.1H42V20H24v8h11.3c-1.6 4.7-6.1 8-11.3 8-6.6 0-12-5.4-12-12s5.4-12 12-12c3.1 0 5.8 1.2 7.8 3.1l5.7-5.7C34.6 4.1 29.6 2 24 2 12.9 2 4 10.9 4 22s8.9 20 20 20 20-8.9 20-20c0-1.3-.1-2.7-.4-4z"/>
  <path fill="#FF3D00" d="m6.3 14.3 6.6 4.8C14.7 15.3 19.1 12 24 12c3.1 0 5.8 1.2 7.8 3.1l5.7-5.7C34.6 4.1 29.6 2 24 2 16.3 2 9.7 6.6 6.3 14.3z"/>
  <path fill="#4CAF50" d="M24 46c5.2 0 9.9-2 13.4-5.2l-6.2-5.2c-1.7 1.2-3.8 1.9-6.2 1.9-5.2 0-9.6-3.3-11.3-7.9l-6.6 5.1C9.5 40.9 16.2 46 24 46z"/>
  <path fill="#1976D2" d="M43.6 20.1H42V20H24v8h11.3a12.1 12.1 0 0 1-4.1 5.6l.003-.002 6.2 5.2C39.8 36.6 44 32 44 22c0-1.3-.1-2.7-.4-4z"/>
</svg>